# xmcd CD database file
#
# Track frame offsets:
#	150
#	13422
#	25092
#	38322
#	49925
#	63537
#	76812
#	94617
#	108492
#	124042
#	138487
#	153777
#	167097
#	180310
#	193137
#	204247
#	217692
#	231334
#	245097
#	260100
#	275915
#	292362
#
# Disc length: 4102 seconds
#
# Revision: 1
# Processed by: cddbd v1.5.2PL0 Copyright (c) Steve Scherf et al.
# Submitted via: CDex 1.51
#
DISCID=3f100416
DTITLE=Slim Whitman - Songs You Love to Hear Him Sing
DYEAR=1995
DGENRE=Country
TTITLE0=Dreamin'
TTITLE1=When
TTITLE2=But She Loves Me
TTITLE3=I Remember You
TTITLE4=Beautiful Dreamer
TTITLE5=Destiny
TTITLE6=The Last Farewell
TTITLE7=Open Up Your Heart
TTITLE8=My Melody Of Love
TTITLE9=Cry Baby Heart
TTITLE10=Can't Help Falling in Love With You
TTITLE11=I Went to Your Wedding
TTITLE12=Scarlet Ribbons
TTITLE13=Four Walls (with Byron Whitman)
TTITLE14=Mr. Songman
TTITLE15=Where Do I Go From Here
TTITLE16=Since You Went Away
TTITLE17=If I Had My Life to Live Over
TTITLE18=Blue Bayou
TTITLE19=Angeline
TTITLE20=Flowers
TTITLE21=Tonight is The Night (We Fall in Love)
EXTD=YEAR: 1995
EXTT0=
EXTT1=
EXTT2=
EXTT3=
EXTT4=
EXTT5=
EXTT6=
EXTT7=
EXTT8=
EXTT9=
EXTT10=
EXTT11=
EXTT12=
EXTT13=
EXTT14=
EXTT15=
EXTT16=
EXTT17=
EXTT18=
EXTT19=
EXTT20=
EXTT21=
PLAYORDER=
